<svg width="144" height="144" viewBox="0 0 144 144" fill="none" xmlns="http://www.w3.org/2000/svg">
<path fill-rule="evenodd" clip-rule="evenodd" d="M13.1077 108.581C13.2122 108.623 13.2958 108.665 13.4003 108.707C13.4839 108.748 13.5675 108.769 13.6511 108.811C14.5496 109.146 15.4691 109.417 16.4304 109.605C17.3916 109.793 18.3947 109.877 19.3977 109.877C24.7891 109.877 29.8044 107.16 32.7718 102.647L48.7162 78.3225V96.0222C48.7162 103.67 54.9226 109.877 62.5709 109.877H63.2187C67.6698 109.877 71.87 107.725 74.4613 104.109L93.4775 77.6747V96.67C93.4775 100.306 94.9612 103.608 97.3435 105.99C99.7257 108.372 103.027 109.856 106.664 109.856C111.344 109.856 115.691 107.369 118.052 103.315L139.911 65.9096C142.335 61.7511 143.609 57.0285 143.609 52.2013C143.609 47.186 141.582 42.6514 138.281 39.3496C135 36.0688 130.444 34.0209 125.429 34.0209C119.306 34.0209 113.601 37.1136 110.237 42.2125L98.5764 59.9958V52.64C98.5764 47.4994 96.4867 42.8394 93.1223 39.4541C89.7579 36.0897 85.0978 34 79.9363 34C73.8553 34 68.1504 36.9674 64.6606 41.9618L52.0597 59.9958V47.8756C52.0597 40.2273 45.8533 34.0209 38.205 34.0209C33.5032 34.0209 29.1357 36.4031 26.5654 40.3527L3.28616 77.4239C-3.71432 88.6665 0.987503 103.462 13.1077 108.581Z" fill="#FFF" />
</svg>
