<svg width="892" height="194" viewBox="0 0 892 194" fill="none" xmlns="http://www.w3.org/2000/svg">
<path d="M891.16 113.645V137.705H813.06V16.6453H840.56V113.645H891.16ZM530.07 137.705C543.474 137.706 556.499 133.258 567.104 125.06C577.709 116.862 585.294 105.377 588.67 92.4053L657.16 145.915L725.61 92.4453V137.705H803.71V113.645H753.11V16.6453H725.61V61.9053L660 113.205L645.32 101.735L676.7 77.1753L710.93 50.4353L691.39 35.1753L625.73 86.4653L611.05 75.0053L676.7 23.7053L657.16 8.4353L588.67 61.9453C585.294 48.9733 577.709 37.4881 567.104 29.2902C556.499 21.0922 543.474 16.6449 530.07 16.6453H481V137.705H530.07ZM508.5 113.645V40.7053H530.07C548.32 40.7053 563.07 57.0353 563.07 77.1753C563.07 97.3153 548.28 113.645 530.07 113.645H508.5Z" fill="black"/>
<path d="M367.34 11.6254V55.6254C367.34 55.6386 367.335 55.6514 367.325 55.6607C367.316 55.6701 367.303 55.6754 367.29 55.6754C367.277 55.6754 367.264 55.6701 367.255 55.6607C367.245 55.6514 367.24 55.6386 367.24 55.6254C361.08 47.7154 350.14 43.1254 336.94 43.1254C311.79 43.1254 297.24 60.5054 295.74 90.1254C295.74 90.1254 295.6 93.3054 295.59 93.7054C295.38 119.805 288.97 131.615 275.78 131.615C266.38 131.615 257.29 128.615 258.15 116.355C258.24 115.095 259.31 89.7254 255.57 72.2854C251.83 54.8454 237.72 42.7854 216.86 42.7854C196 42.7854 172 58.1254 174.74 100.905C174.74 104.305 175.95 111.615 170.87 121.115C167.31 127.765 160.28 132.175 144.43 131.645L108.31 132.075C84.3101 132.075 77.9201 111.495 77.5501 102.385L78.0301 101.905H140.45C143.01 101.905 145.91 101.555 147.85 99.9054C150.85 97.3254 150.78 94.7054 150.76 91.8254C150.76 66.6454 137.52 48.3754 116.21 44.1554C113.315 43.5857 110.371 43.2977 107.42 43.2954C95.2401 43.2954 83.7601 46.5154 74.9701 55.4054C66.1801 64.2954 61.1901 77.8754 61.1901 90.4054V95.6054C61.1901 109.305 65.3001 122.185 72.1901 131.855C72.1901 131.905 48.7201 132.015 48.7201 132.015C30.8701 132.015 16.3501 119.215 16.3401 101.375V11.3754C16.3374 9.22621 15.4818 7.16597 13.9612 5.64721C12.4406 4.12845 10.3793 3.27538 8.2301 3.27538C7.14642 3.27405 6.07317 3.48701 5.0721 3.90201C4.07103 4.31702 3.1619 4.92587 2.39702 5.69354C1.63213 6.46121 1.02659 7.37255 0.615236 8.37512C0.203879 9.3777 -0.00517685 10.4517 9.73628e-05 11.5354V103.815C9.73628e-05 109.633 1.14595 115.394 3.37223 120.768C5.59852 126.143 8.86163 131.027 12.9753 135.14C21.2831 143.448 32.551 148.115 44.3001 148.115H148.78C168.6 148.115 178.58 140.175 183.61 131.925C183.614 131.917 183.621 131.91 183.629 131.905C183.636 131.9 183.646 131.897 183.655 131.897C183.664 131.897 183.674 131.9 183.682 131.905C183.69 131.91 183.696 131.917 183.7 131.925C192.18 143.265 204.75 147.925 216.86 147.925C233.66 147.925 241.19 140.495 245.8 133.785C245.8 133.785 245.87 133.785 245.89 133.785C251.39 144.025 262.01 148.085 274.17 148.085C288.41 148.085 298.08 144.155 303.98 131.965C303.987 131.957 303.995 131.95 304.005 131.946C304.014 131.941 304.025 131.939 304.035 131.939C304.046 131.939 304.056 131.941 304.066 131.946C304.075 131.95 304.084 131.957 304.09 131.965C311.51 142.315 322.77 148.145 336.94 148.145H338.83C350.715 148.101 362.099 143.356 370.498 134.948C378.897 126.539 383.628 115.15 383.66 103.265V11.2654C383.66 9.14365 382.817 7.10882 381.317 5.60853C379.817 4.10824 377.782 3.26538 375.66 3.26538C374.565 3.268 373.481 3.48632 372.47 3.90787C371.459 4.32942 370.541 4.94595 369.769 5.72225C368.996 6.49854 368.384 7.41941 367.967 8.43227C367.551 9.44514 367.337 10.5302 367.34 11.6254ZM311.93 93.4454C312.34 77.4454 317.53 59.4954 338.87 59.4954C361.18 59.4954 365.87 79.1354 365.87 95.6054C365.87 112.075 361.19 131.735 338.87 131.735C317.1 131.735 312.13 113.035 311.87 96.8154C311.87 96.4354 311.87 96.0854 311.87 95.6954V93.4454H311.93ZM241.82 95.3454C241.82 119.115 233.01 131.675 216.36 131.675C200.65 131.675 190.9 117.755 190.9 95.3454C190.9 72.9354 200.65 59.0054 216.36 59.0054C233 59.0054 241.82 71.5954 241.82 95.3454ZM78.5601 84.9454C78.8801 75.3854 85.0101 59.6654 106.08 59.6654C114.59 59.6654 121.25 61.7654 125.9 65.9054C132.9 72.1654 133.7 81.5954 133.7 85.4154C133.691 85.4206 133.681 85.4234 133.67 85.4234C133.66 85.4234 133.649 85.4206 133.64 85.4154H79.0901L78.5601 84.9454Z" fill="black"/>
<path d="M272.84 158.715C271.873 157.888 270.723 157.302 269.485 157.008C268.246 156.715 266.956 156.72 265.72 157.025C264.266 157.397 262.937 158.149 261.87 159.205C251.726 168.917 238.732 175.115 224.8 176.885C222.88 177.135 220.94 177.295 219.02 177.375C218.1 177.415 217.18 177.435 216.26 177.435C199.938 177.441 184.196 171.383 172.09 160.435C170.721 159.146 168.962 158.347 167.09 158.165C165.693 158.049 164.289 158.301 163.02 158.898C161.751 159.495 160.662 160.415 159.86 161.565C158.709 163.192 158.189 165.183 158.399 167.165C158.609 169.147 159.534 170.985 161 172.335C176.109 186.114 195.822 193.75 216.27 193.745C217.41 193.745 218.56 193.745 219.71 193.675C222.1 193.575 224.51 193.375 226.89 193.065C244.374 190.848 260.671 183.036 273.35 170.795C274.168 170.012 274.81 169.064 275.234 168.014C275.658 166.965 275.854 165.837 275.81 164.705C275.762 163.555 275.473 162.427 274.962 161.395C274.45 160.363 273.727 159.45 272.84 158.715Z" fill="#F1AF02"/>
<path d="M289.27 42.0054C281.825 28.7422 270.849 17.8022 257.562 10.4003C244.275 2.99851 229.196 -0.575453 214 0.075378C212.75 0.075378 211.48 0.205378 210.23 0.315378C197.066 1.48178 184.373 5.78477 173.214 12.8641C162.055 19.9435 152.754 29.5932 146.09 41.0054C145.162 42.5702 144.794 44.4047 145.049 46.2063C145.303 48.0079 146.164 49.669 147.49 50.9154L147.67 51.0954C148.442 51.8355 149.355 52.4119 150.355 52.79C151.355 53.1681 152.422 53.34 153.49 53.2954C154.846 53.2392 156.167 52.8436 157.33 52.1447C158.494 51.4459 159.463 50.4662 160.15 49.2954C165.493 40.1193 172.959 32.3588 181.922 26.6654C190.885 20.972 201.083 17.5118 211.66 16.5754C212.66 16.4954 213.66 16.4254 214.66 16.3854C226.888 15.8677 239.018 18.7602 249.697 24.7396C260.375 30.719 269.181 39.5498 275.13 50.2454C275.828 51.487 276.845 52.5198 278.075 53.2371C279.306 53.9543 280.706 54.33 282.13 54.3254H282.47C284.074 54.2813 285.626 53.7481 286.918 52.7972C288.21 51.8464 289.181 50.5234 289.7 49.0054L289.81 48.6754C290.207 47.5905 290.364 46.4326 290.271 45.2812C290.178 44.1298 289.836 43.0123 289.27 42.0054Z" fill="#F1AF02"/>
</svg>
