<?xml version="1.0" encoding="UTF-8"?>
<svg id="Layer_2" data-name="Layer 2" xmlns="http://www.w3.org/2000/svg" viewBox="0 0 232.1545893 240">
  <defs>
    <style>
      .cls-1 {
        fill: #fff;
      }
    </style>
  </defs>
  <g id="All_Branding_Elements" data-name="All Branding Elements">
    <path id="Mono_Symbol_White" data-name="Mono–Symbol–White" class="cls-1" d="M119.1399774,28.5351342c-2.4464851-.9597372-2.663028-1.867473-1.5016868-4.0529494,14.1528565-26.6336314,53.4448919-19.2000411,83.2888634,10.6394336,22.0673528,22.0640278,29.0122547,46.378694,30.1411663,50.87285,3.3089995,13.1730065-.334014,23.161444-26.1303776,23.161444-20.5603684,0-47.5750538-6.8574703-59.3808946-18.664188-20.446624-20.4481426-13.7927326-57.0041598-26.4170706-61.9565901ZM1.0300271,85.9944684c-3.3089995,13.1730065.334014,23.161444,26.1303776,23.161444,20.5603684,0,47.5748346-6.8576895,59.3808946-18.664188,23.7416776-23.7425592,11.0680583-68.9324267,38.2026365-84.998094,1.5019049-.8892382,3.9899167-1.9283905,3.9899167-3.1450031,0-1.2046965-2.4815548-2.3486273-12.6846788-2.3486273C83.995289,0,53.8615984,12.4830868,31.1960756,35.1473033,9.1297494,57.2123577,2.1589387,81.5003124,1.0300271,85.9944684ZM113.0146118,211.4648658c2.4464851.9597372,2.663028,1.867473,1.5016868,4.0529494-14.1528565,26.6336314-53.4448919,19.2000411-83.2888634-10.6394336C9.1600825,182.8143538,2.2151806,158.4996876,1.086269,154.0055316c-3.3089995-13.1730065.334014-23.161444,26.1303776-23.161444,20.5603684,0,47.5750538,6.8574703,59.3808946,18.664188,20.446624,20.4481426,13.7927326,57.0041598,26.4170706,61.9565901ZM231.1245621,154.0055316c3.3089995-13.1730065-.334014-23.161444-26.1303776-23.161444-20.5603684,0-47.5748346,6.8576895-59.3808946,18.664188-23.7416776,23.7425592-11.0680583,68.9324267-38.2026365,84.998094-1.5019049.8892382-3.9899167,1.9283905-3.9899167,3.1450031,0,1.2046965,2.4815548,2.3486273,12.6846788,2.3486273,32.0538847,0,62.1875753-12.4830868,84.8530981-35.1473033,22.0663262-22.0650544,29.0371369-46.3530092,30.1660485-50.8471651Z"/>
  </g>
</svg>